<svg width="1200" height="630" viewBox="0 0 1200 630" xmlns="http://www.w3.org/2000/svg">
  <defs>
    <linearGradient id="bg" x1="0%" y1="0%" x2="100%" y2="100%">
      <stop offset="0%" style="stop-color:#1A1D24"/>
      <stop offset="100%" style="stop-color:#2D3748"/>
    </linearGradient>
    <linearGradient id="accent" x1="0%" y1="0%" x2="100%" y2="0%">
      <stop offset="0%" style="stop-color:#5B8DEF"/>
      <stop offset="100%" style="stop-color:#7C3AED"/>
    </linearGradient>
  </defs>

  <!-- Background -->
  <rect width="1200" height="630" fill="url(#bg)"/>

  <!-- Decorative circles -->
  <circle cx="950" cy="150" r="300" fill="#5B8DEF" opacity="0.05"/>
  <circle cx="1050" cy="500" r="200" fill="#7C3AED" opacity="0.07"/>
  <circle cx="100" cy="500" r="180" fill="#5B8DEF" opacity="0.04"/>

  <!-- Left accent bar -->
  <rect x="80" y="160" width="5" height="310" rx="3" fill="url(#accent)"/>

  <!-- Name -->
  <text x="120" y="255" font-family="'Helvetica Neue', Arial, sans-serif" font-size="72" font-weight="700" fill="#F0F4FF" letter-spacing="-2">Daniel Ruge</text>

  <!-- Full name smaller -->
  <text x="122" y="305" font-family="'Helvetica Neue', Arial, sans-serif" font-size="26" font-weight="300" fill="#94A3B8" letter-spacing="1">Stiven Ruge Cuellar</text>

  <!-- Divider -->
  <rect x="120" y="330" width="500" height="1" fill="#5B8DEF" opacity="0.3"/>

  <!-- Title -->
  <text x="122" y="385" font-family="'Helvetica Neue', Arial, sans-serif" font-size="34" font-weight="500" fill="#5B8DEF">Junior Full-Stack Developer</text>

  <!-- Tags -->
  <rect x="122" y="415" width="130" height="36" rx="6" fill="#5B8DEF" opacity="0.15"/>
  <text x="145" y="438" font-family="'Helvetica Neue', Arial, sans-serif" font-size="18" fill="#5B8DEF">Next.js</text>

  <rect x="268" y="415" width="110" height="36" rx="6" fill="#5B8DEF" opacity="0.15"/>
  <text x="291" y="438" font-family="'Helvetica Neue', Arial, sans-serif" font-size="18" fill="#5B8DEF">React</text>

  <rect x="394" y="415" width="130" height="36" rx="6" fill="#5B8DEF" opacity="0.15"/>
  <text x="416" y="438" font-family="'Helvetica Neue', Arial, sans-serif" font-size="18" fill="#5B8DEF">Node.js</text>

  <rect x="540" y="415" width="160" height="36" rx="6" fill="#5B8DEF" opacity="0.15"/>
  <text x="560" y="438" font-family="'Helvetica Neue', Arial, sans-serif" font-size="18" fill="#5B8DEF">PostgreSQL</text>

  <!-- Location & availability -->
  <text x="122" y="500" font-family="'Helvetica Neue', Arial, sans-serif" font-size="22" fill="#64748B">📍 Chiquinquirá, Colombia &nbsp;·&nbsp; 🌐 Disponible Remoto</text>

  <!-- URL -->
  <text x="122" y="550" font-family="'Helvetica Neue', Arial, sans-serif" font-size="20" fill="#5B8DEF" opacity="0.7">drugecuellar.github.io/CV-linkedin</text>

  <!-- Right decoration - code lines -->
  <g opacity="0.08">
    <rect x="820" y="200" width="280" height="14" rx="4" fill="#5B8DEF"/>
    <rect x="820" y="228" width="220" height="14" rx="4" fill="#94A3B8"/>
    <rect x="840" y="256" width="180" height="14" rx="4" fill="#94A3B8"/>
    <rect x="840" y="284" width="200" height="14" rx="4" fill="#94A3B8"/>
    <rect x="820" y="312" width="160" height="14" rx="4" fill="#5B8DEF"/>
    <rect x="840" y="340" width="140" height="14" rx="4" fill="#94A3B8"/>
    <rect x="840" y="368" width="190" height="14" rx="4" fill="#94A3B8"/>
    <rect x="820" y="396" width="120" height="14" rx="4" fill="#5B8DEF"/>
  </g>
</svg>
